HIERARCHY
ROOT Hips
{
  OFFSET 53.9337 94.3415 16.4311
  CHANNELS 6 Xposition Yposition Zposition Zrotation Xrotation Yrotation
  JOINT spine
  {
    OFFSET 0 7.80059 0.448573
    CHANNELS 3 Zrotation Xrotation Yrotation
    JOINT spine1
    {
      OFFSET 0 10.1364 0
      CHANNELS 3 Zrotation Xrotation Yrotation
      JOINT spine2
      {
        OFFSET 0 9.71251 0
        CHANNELS 3 Zrotation Xrotation Yrotation
        JOINT Neck
        {
          OFFSET 0 24.9361 1.18887
          CHANNELS 3 Zrotation Xrotation Yrotation
          JOINT Head
          {
            OFFSET 0 7.53384 0
            CHANNELS 3 Zrotation Xrotation Yrotation
            End Site
            {
              OFFSET 0 18.2361 -6.01402
            }
          }
        }
        JOINT RightShoulder
        {
          OFFSET -4.08965 10.4888 -0.569457
          CHANNELS 3 Zrotation Xrotation Yrotation
          JOINT RightArm
          {
            OFFSET 0 13.757 0
            CHANNELS 3 Zrotation Xrotation Yrotation
            JOINT RightArmRoll
            {
              OFFSET 0 6.94478 0
              CHANNELS 3 Zrotation Xrotation Yrotation
              JOINT RightForeArm
              {
                OFFSET 0 20.2277 0
                CHANNELS 3 Zrotation Xrotation Yrotation
                JOINT RightForeArmRoll
                {
                  OFFSET 0 7.79312 0
                  CHANNELS 3 Zrotation Xrotation Yrotation
                  JOINT RightHand
                  {
                    OFFSET 0 15.6391 0
                    CHANNELS 3 Zrotation Xrotation Yrotation
                    End Site
                    {
                      OFFSET 0 0 0
                    }
                  }
                }
              }
            }
          }
        }
        JOINT LeftShoulder
        {
          OFFSET 4.08965 10.4888 -0.569457
          CHANNELS 3 Zrotation Xrotation Yrotation
          JOINT LeftArm
          {
            OFFSET 0 13.757 0
            CHANNELS 3 Zrotation Xrotation Yrotation
            JOINT LeftArmRoll
            {
              OFFSET 0 6.94478 0
              CHANNELS 3 Zrotation Xrotation Yrotation
              JOINT LeftForeArm
              {
                OFFSET 0 20.2277 0
                CHANNELS 3 Zrotation Xrotation Yrotation
                JOINT LeftForeArmRoll
                {
                  OFFSET 0 7.79312 0
                  CHANNELS 3 Zrotation Xrotation Yrotation
                  JOINT LeftHand
                  {
                    OFFSET 0 15.6391 0
                    CHANNELS 3 Zrotation Xrotation Yrotation
                    End Site
                    {
                      OFFSET 0 0 0
                    }
                  }
                }
              }
            }
          }
        }
      }
    }
  }
  JOINT RightUpLeg
  {
    OFFSET -6.91416 -1.26788 -1.06358
    CHANNELS 3 Zrotation Xrotation Yrotation
    JOINT RightUpLegRoll
    {
      OFFSET 0 18.3378 0
      CHANNELS 3 Zrotation Xrotation Yrotation
      JOINT RightLeg
      {
        OFFSET 0 -22.7085 0
        CHANNELS 3 Zrotation Xrotation Yrotation
        JOINT RightLegRoll
        {
          OFFSET 0 22.7828 0
          CHANNELS 3 Zrotation Xrotation Yrotation
          JOINT RightFoot
          {
            OFFSET 0 18.9629 0
            CHANNELS 3 Zrotation Xrotation Yrotation
            JOINT RightToeBase
            {
              OFFSET 0 15.852 0
              CHANNELS 3 Zrotation Xrotation Yrotation
              End Site
              {
                OFFSET 0.00671906 7.67701 -0.884893
              }
            }
          }
        }
      }
    }
  }
  JOINT LeftUpLeg
  {
    OFFSET 6.91416 -1.26788 -1.06358
    CHANNELS 3 Zrotation Xrotation Yrotation
    JOINT LeftUpLegRoll
    {
      OFFSET 0 18.3379 0
      CHANNELS 3 Zrotation Xrotation Yrotation
      JOINT LeftLeg
      {
        OFFSET 0 22.7084 0
        CHANNELS 3 Zrotation Xrotation Yrotation
        JOINT LeftLegRoll
        {
          OFFSET 0 22.9934 0
          CHANNELS 3 Zrotation Xrotation Yrotation
          JOINT LeftFoot
          {
            OFFSET 0 18.7522 0
            CHANNELS 3 Zrotation Xrotation Yrotation
            JOINT LeftToeBase
            {
              OFFSET 0 15.852 0
              CHANNELS 3 Zrotation Xrotation Yrotation
              End Site
              {
                OFFSET -0.030112 7.67701 -0.884893
              }
            }
          }
        }
      }
    }
  }
}
MOTION
Frames: 9
Frame Time: 0.00208333
54.0973 94.3164 16.2915 -0.254444 -5.08041 -2.69625 -0.0676081 -0.62908 0.374514 -0.134424 2.74559 0.756508 -0.143675 4.39061 0.759407 -2.58632 18.2634 -0.194814 5.9001 -15.8949 0.416675 81.8142 -3.97845 -4.06012 89.9479 14.1489 6.46198 -1.0138e-014 3.18055e-015 -1.59028e-015 15.977 16.3513 -2.91046 -6.8913e-006 -1.81814e-006 -3 8.02897 -4.95143 0.697704 -66.4832 1.36582 0.217925 -105.094 -10.8316 -5.69168 1.12672e-005 -2.36429e-006 -2.4543e-006 -13.3613 38.6552 7.21991 7.68011e-006 -1.89956e-006 3 -8.0289 -4.95096 -0.697497 176.304 -1.4356 0.832221 180 7.01571e-015 179.033 178.644 7.52521 179.526 -6.61542e-008 -1.14453e-006 -0.028483 -15.204 67.5903 19.2148 8.13649 25.2327 -3.48774 -178.898 -1.46162 5.96672 4.54188e-006 -4.6773e-006 -1.32343 -4.87293 -10.2028 -0.224148 2.92052e-006 -3.53508e-006 -0.200549 23.5111 71.0845 -22.7025 -8.13649 25.2327 3.48774 
54.0974 94.3102 16.2877 -0.249508 -5.07679 -2.68281 -0.0673802 -0.630569 0.375127 -0.133424 2.74404 0.757185 -0.142692 4.38905 0.760067 -2.6099 18.2493 -0.20066 5.92746 -15.8846 0.409918 81.8155 -3.97806 -4.06005 89.9406 14.0979 6.59218 -4.96962e-015 4.77083e-015 -0 15.9083 16.3552 -2.91012 -6.8913e-006 -1.81814e-006 -3 8.02897 -4.95143 0.697704 -66.5121 1.37714 0.215805 -105.134 -10.7409 -5.85832 1.12672e-005 -2.36429e-006 -2.4543e-006 -13.2331 38.5099 7.1417 7.68011e-006 -1.89956e-006 3 -8.0289 -4.95096 -0.697497 176.299 -1.43223 0.834364 180 7.01571e-015 179.033 178.644 7.52912 179.526 -6.61542e-008 -1.14453e-006 -0.0284714 -15.2068 67.5925 19.2164 8.13649 25.2327 -3.48774 -178.903 -1.45775 5.97127 4.54188e-006 -4.6773e-006 -1.32334 -4.8715 -10.198 -0.223504 2.92052e-006 -3.53508e-006 -0.200507 23.5057 71.0812 -22.6987 -8.13649 25.2327 3.48774 
54.1213 94.3177 16.3761 -0.244645 -5.073 -2.66945 -0.0671403 -0.63216 0.375756 -0.132364 2.74234 0.757836 -0.14165 4.38735 0.760701 -2.63386 18.2358 -0.206225 5.95482 -15.8741 0.403294 81.8166 -3.97764 -4.05995 89.9337 14.0499 6.72296 4.57205e-015 0 3.18055e-015 15.8398 16.3509 -2.90863 -6.8913e-006 -1.81814e-006 -3 8.02897 -4.95143 0.697704 -66.5417 1.38817 0.213913 -105.172 -10.6494 -6.02243 1.12672e-005 -2.36429e-006 -2.4543e-006 -13.1075 38.3633 7.06436 7.68011e-006 -1.89956e-006 3 -8.0289 -4.95096 -0.697497 176.295 -1.42868 0.836559 180 7.01571e-015 179.033 178.644 7.53296 179.526 -6.61542e-008 -1.14453e-006 -0.0284616 -15.2098 67.5947 19.218 8.13649 25.2327 -3.48774 -178.907 -1.4538 5.97571 4.54188e-006 -4.6773e-006 -1.32324 -4.87005 -10.1931 -0.222803 2.92052e-006 -3.53508e-006 -0.200444 23.4995 71.0777 -22.6947 -8.13649 25.2327 3.48774 
54.118 94.318 16.359 -0.239832 -5.06909 -2.65613 -0.0668919 -0.633823 0.376397 -0.131263 2.74055 0.758468 -0.140567 4.38556 0.761315 -2.65809 18.2227 -0.211593 5.98217 -15.8635 0.396761 81.8173 -3.97719 -4.05983 89.9273 14.0038 6.85416 1.78906e-015 3.18055e-015 3.18055e-015 15.7713 16.3409 -2.90633 -6.8913e-006 -1.81814e-006 -3 8.02897 -4.95143 0.697704 -66.5717 1.39899 0.21218 -105.208 -10.5573 -6.18476 1.12672e-005 -2.36429e-006 -2.4543e-006 -12.9839 38.2159 6.98774 7.68011e-006 -1.89956e-006 3 -8.0289 -4.95096 -0.697497 176.29 -1.42502 0.83879 180 7.01571e-015 179.033 178.644 7.53675 179.526 -6.61542e-008 -1.14453e-006 -0.0284531 -15.2129 67.5969 19.2196 8.13649 25.2327 -3.48774 -178.912 -1.44979 5.98007 4.54188e-006 -4.6773e-006 -1.32312 -4.86857 -10.1882 -0.222061 2.92052e-006 -3.53508e-006 -0.200367 23.4927 71.074 -22.6904 -8.13649 25.2327 3.48774 
54.103 94.3112 16.2754 -0.23505 -5.06511 -2.64283 -0.0666387 -0.635526 0.377045 -0.130138 2.7387 0.759089 -0.139461 4.38371 0.761919 -2.68248 18.2098 -0.216848 6.00952 -15.8528 0.390283 81.818 -3.97673 -4.0597 89.9212 13.9588 6.98556 -1.19271e-014 0 -0 15.703 16.3277 -2.90357 -6.8913e-006 -1.81814e-006 -3 8.02897 -4.95143 0.697704 -66.6019 1.40969 0.210539 -105.243 -10.4649 -6.34603 1.12672e-005 -2.36429e-006 -2.4543e-006 -12.8616 38.0679 6.91168 7.68011e-006 -1.89956e-006 3 -8.0289 -4.95096 -0.697497 176.286 -1.42129 0.841041 180 7.01571e-015 179.033 178.644 7.54055 179.527 -6.61542e-008 -1.14453e-006 -0.0284454 -15.2162 67.5992 19.2212 8.13649 25.2327 -3.48774 -178.916 -1.44574 5.98439 4.54188e-006 -4.6773e-006 -1.32299 -4.86708 -10.1834 -0.221296 2.92052e-006 -3.53508e-006 -0.200282 23.4856 71.0702 -22.6859 -8.13649 25.2327 3.48774 
54.1146 94.3158 16.3068 -0.230277 -5.06111 -2.62955 -0.0663843 -0.63724 0.377694 -0.129008 2.73683 0.759708 -0.138349 4.38184 0.762519 -2.70691 18.197 -0.222074 6.03688 -15.842 0.383818 81.8186 -3.97627 -4.05956 89.9153 13.914 7.11698 1.05356e-014 -4.77083e-015 3.18055e-015 15.6346 16.3136 -2.90069 -6.8913e-006 -1.81814e-006 -3 8.02897 -4.95143 0.697704 -66.6322 1.42037 0.208921 -105.278 -10.3723 -6.50697 1.12672e-005 -2.36429e-006 -2.4543e-006 -12.74 37.9197 6.83602 7.68011e-006 -1.89956e-006 3 -8.0289 -4.95096 -0.697497 176.281 -1.41755 0.843298 180 7.01571e-015 179.033 178.644 7.54432 179.527 -6.61542e-008 -1.14453e-006 -0.0284378 -15.2194 67.6014 19.2228 8.13649 25.2327 -3.48774 -178.921 -1.44168 5.98869 4.54188e-006 -4.6773e-006 -1.32286 -4.86559 -10.1785 -0.220525 2.92052e-006 -3.53508e-006 -0.200194 23.4784 71.0664 -22.6815 -8.13649 25.2327 3.48774 
54.1049 94.3143 16.2656 -0.225491 -5.05715 -2.61625 -0.0661322 -0.638933 0.37834 -0.127889 2.735 0.760333 -0.137248 4.38001 0.763126 -2.73127 18.1841 -0.227356 6.06423 -15.8313 0.377327 81.8193 -3.97581 -4.05942 89.9096 13.8687 7.24822 4.17448e-015 3.18055e-015 3.18055e-015 15.5662 16.3011 -2.89804 -6.8913e-006 -1.81814e-006 -3 8.02897 -4.95143 0.697704 -66.6624 1.4311 0.207257 -105.312 -10.2799 -6.66833 1.12672e-005 -2.36429e-006 -2.4543e-006 -12.6186 37.7716 6.76062 7.68011e-006 -1.89956e-006 3 -8.0289 -4.95096 -0.697497 176.276 -1.41384 0.845545 180 7.01571e-015 179.033 178.644 7.54812 179.527 -6.61542e-008 -1.14453e-006 -0.0284299 -15.2226 67.6036 19.2243 8.13649 25.2327 -3.48774 -178.925 -1.43764 5.99302 4.54188e-006 -4.6773e-006 -1.32274 -4.86411 -10.1736 -0.219766 2.92052e-006 -3.53508e-006 -0.200111 23.4714 71.0626 -22.6771 -8.13649 25.2327 3.48774 
54.1072 94.311 16.2689 -0.220672 -5.05327 -2.60292 -0.0658861 -0.640575 0.378978 -0.1268 2.73323 0.76097 -0.136177 4.37824 0.763745 -2.75543 18.1709 -0.232777 6.0916 -15.8207 0.370771 81.8201 -3.97537 -4.05931 89.9039 13.8218 7.37909 1.03368e-014 1.59028e-015 3.18055e-015 15.4977 16.2928 -2.89597 -6.8913e-006 -1.81814e-006 -3 8.02897 -4.95143 0.697704 -66.6923 1.44198 0.205479 -105.347 -10.1879 -6.83082 1.12672e-005 -2.36429e-006 -2.4543e-006 -12.4965 37.6241 6.6853 7.68011e-006 -1.89956e-006 3 -8.0289 -4.95096 -0.697497 176.272 -1.41021 0.847765 180 7.01571e-015 179.033 178.645 7.55193 179.527 -6.61542e-008 -1.14453e-006 -0.028421 -15.2257 67.6058 19.2259 8.13649 25.2327 -3.48774 -178.93 -1.43365 5.9974 4.54188e-006 -4.6773e-006 -1.32263 -4.86264 -10.1687 -0.219036 2.92052e-006 -3.53508e-006 -0.200038 23.4648 71.059 -22.6729 -8.13649 25.2327 3.48774 
54.1072 94.3136 16.2766 -0.215798 -5.04953 -2.58953 -0.0656496 -0.642136 0.379602 -0.125758 2.73157 0.761628 -0.135152 4.37658 0.764387 -2.7793 18.1572 -0.238421 6.11897 -15.8103 0.364111 81.8212 -3.97496 -4.05922 89.8983 13.7726 7.50939 -8.54774e-015 1.59028e-015 -0 15.4291 16.291 -2.89483 -6.8913e-006 -1.81814e-006 -3 8.02897 -4.95143 0.697704 -66.7216 1.45309 0.203518 -105.382 -10.0964 -6.99519 1.12672e-005 -2.36429e-006 -2.4543e-006 -12.3733 37.4774 6.60991 7.68011e-006 -1.89956e-006 3 -8.0289 -4.95096 -0.697497 176.267 -1.40671 0.849944 180 7.01571e-015 179.033 178.645 7.55579 179.527 -6.61542e-008 -1.14453e-006 -0.0284107 -15.2287 67.608 19.2275 8.13649 25.2327 -3.48774 -178.935 -1.42972 6.00188 4.54188e-006 -4.6773e-006 -1.32253 -4.86119 -10.1639 -0.218352 2.92052e-006 -3.53508e-006 -0.199981 23.4588 71.0556 -22.6689 -8.13649 25.2327 3.48774 
